<svg width="1024" height="640" xmlns="http://www.w3.org/2000/svg" xmlns:xlink="http://www.w3.org/1999/xlink" overflow="hidden"><defs><linearGradient x1="512" y1="0" x2="512" y2="640" gradientUnits="userSpaceOnUse" spreadMethod="reflect" id="fill0"><stop offset="0" stop-color="#1A1926"/><stop offset="1" stop-color="#1A1926"/></linearGradient><linearGradient x1="184" y1="73" x2="184" y2="181" gradientUnits="userSpaceOnUse" spreadMethod="reflect" id="fill1"><stop offset="0" stop-color="#484A73"/><stop offset="1" stop-color="#484A73"/></linearGradient><linearGradient x1="214" y1="195" x2="214" y2="407" gradientUnits="userSpaceOnUse" spreadMethod="reflect" id="fill2"><stop offset="0" stop-color="#2A2940"/><stop offset="1" stop-color="#2A2940"/></linearGradient><linearGradient x1="693" y1="73" x2="693" y2="407" gradientUnits="userSpaceOnUse" spreadMethod="reflect" id="fill3"><stop offset="0" stop-color="#2A2940"/><stop offset="1" stop-color="#2A2940"/></linearGradient><linearGradient x1="512" y1="420" x2="512" y2="633" gradientUnits="userSpaceOnUse" spreadMethod="reflect" id="fill4"><stop offset="0" stop-color="#2A2940"/><stop offset="1" stop-color="#2A2940"/></linearGradient></defs><g><rect x="0" y="0" width="1024" height="640" fill="url(#fill0)"/><path d="M6 91.0005C6 81.0591 14.0591 73 24.0005 73L343.999 73C353.941 73 362 81.0591 362 91.0005L362 162.999C362 172.941 353.941 181 343.999 181L24.0005 181C14.0591 181 6 172.941 6 162.999Z" fill="url(#fill1)" fill-rule="evenodd"/><path d="M6 225.899C6 208.834 19.8339 195 36.8988 195L391.101 195C408.166 195 422 208.834 422 225.899L422 376.101C422 393.166 408.166 407 391.101 407L36.8988 407C19.8339 407 6 393.166 6 376.101Z" fill="url(#fill2)" fill-rule="evenodd"/><path d="M368 84.139C368 77.9871 372.987 73 379.139 73L1006.86 73C1013.01 73 1018 77.9871 1018 84.139L1018 395.861C1018 402.013 1013.01 407 1006.86 407L379.139 407C372.987 407 368 402.013 368 395.861Z" fill="url(#fill3)" fill-rule="evenodd"/><path d="M6 439.46C6 428.712 14.7124 420 25.4597 420L998.54 420C1009.29 420 1018 428.712 1018 439.46L1018 613.54C1018 624.288 1009.29 633 998.54 633L25.4597 633C14.7124 633 6 624.288 6 613.54Z" fill="url(#fill4)" fill-rule="evenodd"/></g></svg>