<svg width="1024" height="640" xmlns="http://www.w3.org/2000/svg" xmlns:xlink="http://www.w3.org/1999/xlink" overflow="hidden"><defs><linearGradient x1="512" y1="0" x2="512" y2="640" gradientUnits="userSpaceOnUse" spreadMethod="reflect" id="fill0"><stop offset="0" stop-color="#1A1A26"/><stop offset="1" stop-color="#1A1A26"/></linearGradient><linearGradient x1="167" y1="14" x2="167" y2="627" gradientUnits="userSpaceOnUse" spreadMethod="reflect" id="fill1"><stop offset="0" stop-color="#2A2940"/><stop offset="1" stop-color="#2A2940"/></linearGradient><linearGradient x1="655.5" y1="14" x2="655.5" y2="627" gradientUnits="userSpaceOnUse" spreadMethod="reflect" id="fill2"><stop offset="0" stop-color="#494C73"/><stop offset="1" stop-color="#494C73"/></linearGradient></defs><g><rect x="0" y="0" width="1024" height="640" fill="url(#fill0)"/><path d="M32 53.2799C32 31.5862 49.5862 14 71.2799 14L262.72 14C284.414 14 302 31.5862 302 53.2799L302 587.72C302 609.414 284.414 627 262.72 627L71.2799 627C49.5862 627 32 609.414 32 587.72Z" fill="url(#fill1)" fill-rule="evenodd"/><path d="M319 28.8039C319 20.628 325.628 14 333.804 14L977.196 14C985.372 14 992 20.628 992 28.8039L992 612.196C992 620.372 985.372 627 977.196 627L333.804 627C325.628 627 319 620.372 319 612.196Z" fill="url(#fill2)" fill-rule="evenodd"/></g></svg>